<svg width="1145" height="493" viewBox="0 0 1145 493" fill="none" xmlns="http://www.w3.org/2000/svg">
<path d="M689.83 491.72C685.81 491.72 681.97 491.49 678.42 491.05C659.87 488.73 647.88 475.89 647.88 458.34C647.88 436.76 661.15 418.13 689.65 399.71C714.2 383.85 746.76 370.03 786.69 353.8C778.7 353.54 771.11 351.85 764.1 348.75C756.48 345.39 749.79 340.7 744.22 334.83C738.65 328.97 734.19 321.91 730.97 313.86C727.75 305.82 726.12 296.99 726.12 287.61V42.44H767.99V235.86C774.37 233.52 781.38 232.33 788.84 232.33C797.62 232.33 805.94 233.89 813.56 236.97C821.18 240.05 827.86 244.36 833.44 249.78C839.01 255.21 843.47 261.68 846.69 269C849.92 276.34 851.55 284.37 851.55 292.87C851.55 301.37 849.99 309.47 846.91 316.94C844.39 323.07 840.91 328.58 836.57 333.38C846.26 329.31 854.96 325.55 863.1 321.92L879.29 314.61C913.4 268.49 950.37 213.57 989.22 151.34H987.41C948.71 202.17 895.96 261.42 874.41 261.42C869.01 261.42 863.99 258.93 859.88 254.23C852.21 245.46 848.96 230.38 851.18 213.88C856.48 179.14 892.16 138.37 912.96 117.16C919.6 110.52 926.26 104.08 932.71 97.84C957.82 73.55 979.5 52.57 980.74 38.52C981.34 33.99 980.52 30.2 978.43 27.81C976.76 25.91 974.37 24.94 971.32 24.94C947.53 24.94 899.12 86.74 859.61 140.57L859.04 141.35L857.92 139.12L858.13 138.83C915.87 59.61 952 22.72 971.84 22.72C975.57 22.72 979.33 24.59 982.45 27.98C987.96 33.98 990.71 43.87 989.81 54.43C987.72 82.68 970.1 115.35 935.94 154.31C903.94 188.98 869.69 227.63 868.14 247.72C867.66 251.31 868.29 254.2 869.94 256.09C871.42 257.78 873.69 258.68 876.51 258.68C894.78 258.68 952.72 193.76 986.12 149.89L1070.61 28.43L1071.96 28.81C1078.03 30.52 1084.91 32.47 1092.59 32.47C1109.78 32.47 1125.25 22.13 1139.89 0.869995L1140.07 0.619995H1143.16L1142.42 1.57C1128.52 19.37 1112.3 38.26 1095.13 58.26C1058.6 100.8 1020.83 144.78 997.64 186.89C976.71 223.91 958.85 254.45 943.1 280.13C977.6 258.59 1003.92 235.62 1023.52 209.95C1040.55 189.51 1057.42 166.27 1075.11 138.88L1075.67 138.02L1076.81 140.29L1076.63 140.57C1061.65 164.25 1044.75 187.35 1024.97 211.21C1004.63 238.17 977.67 261.46 940.15 284.47C900.96 347.69 868.14 391.22 833.75 425.61C813.19 446.39 787.62 463.66 759.8 475.56C735.38 486 710.53 491.76 689.82 491.76L689.83 491.72ZM792.28 353.76C719.16 383.35 650.11 411.32 650.11 458.34C650.11 475.32 661.73 486.72 679.02 486.72H679.55C680.5 486.77 681.39 486.79 682.33 486.79C728.29 486.79 793.49 430.13 876.11 318.39C873.12 319.91 870.01 321.26 866.98 322.57C865.84 323.07 864.71 323.55 863.61 324.04C854.33 328.16 844.21 332.5 832.67 337.29C827.17 342.29 820.74 346.3 813.58 349.19C806.96 351.86 799.79 353.4 792.29 353.75L792.28 353.76ZM788.84 270.26C785.44 270.26 782.36 270.83 779.66 271.96C776.97 273.09 774.61 274.74 772.64 276.85C770.65 278.98 769.07 281.42 767.94 284.12C766.81 286.81 766.24 289.75 766.24 292.86C766.24 295.97 766.81 299.01 767.95 301.83C769.08 304.66 770.66 307.18 772.65 309.3C774.63 311.43 776.99 313.07 779.67 314.19C782.35 315.32 785.44 315.89 788.85 315.89C791.97 315.89 794.99 315.32 797.82 314.18C800.65 313.05 803.15 311.4 805.28 309.28C807.39 307.17 808.96 304.67 809.95 301.84C810.94 299 811.45 295.97 811.45 292.85C811.45 289.73 810.95 286.78 809.95 284.08C808.95 281.39 807.38 278.96 805.27 276.85C803.16 274.74 800.65 273.09 797.81 271.95C794.96 270.82 791.94 270.24 788.84 270.24V270.26Z" fill="#FF1486"/>
<path d="M1141.98 1.17C1098.79 56.47 1031.37 124.42 997.14 186.56C976.6 222.9 958.16 254.5 941.31 281.89C972.91 262.4 1001.88 239.23 1024 210.26C1042.43 188.14 1059.29 164.44 1075.62 139.16L1076.15 140.21C1059.82 166.02 1042.44 189.19 1024.53 210.79C1001.88 240.81 972.39 263.99 939.73 284C900.23 347.73 867.57 390.92 833.34 425.15C788.92 470.05 728.9 491.12 689.83 491.12C685.82 491.12 682.03 490.9 678.5 490.46C661.65 488.35 648.48 476.77 648.48 458.33C648.48 411.95 712.1 384.72 789.67 353.22C789.4 353.22 789.13 353.24 788.85 353.24C780.1 353.24 771.93 351.56 764.35 348.21C756.76 344.86 750.2 340.27 744.66 334.43C739.12 328.6 734.74 321.67 731.53 313.65C728.32 305.63 726.72 296.95 726.72 287.62V43.02H767.41V236.7C773.93 234.19 781.07 232.91 788.85 232.91C797.6 232.91 805.76 234.44 813.35 237.5C820.93 240.56 827.5 244.79 833.04 250.19C838.58 255.59 842.95 261.94 846.17 269.22C849.38 276.51 850.98 284.39 850.98 292.85C850.98 301.31 849.45 309.26 846.39 316.7C843.5 323.71 839.44 329.8 834.23 334.99C843.91 330.94 853.65 326.77 863.37 322.44L879.7 315.07C917.09 264.51 954.49 208.15 990.3 150.74H987.14C950.27 199.2 896.02 260.82 874.43 260.82C859.68 260.82 848.1 241.33 851.78 213.94C856.52 182.87 886.54 144.94 913.4 117.56C946.05 84.91 979.76 56.46 981.34 38.56C982.39 30.66 979.23 24.34 971.33 24.34C947.63 24.34 901.28 82.8 859.14 140.21L858.61 139.16C903.91 77.01 948.67 23.29 971.85 23.29C981.33 23.29 990.81 35.93 989.23 54.36C987.12 82.8 969.21 115.46 935.51 153.9C903.91 188.14 869.15 227.11 867.57 247.65C866.52 255.55 870.73 259.24 876.52 259.24C894.43 259.24 951.31 196.56 986.6 150.22L1070.87 29.08C1077.11 30.84 1084.44 33.02 1092.61 33.02C1106.5 33.02 1122.82 26.69 1140.39 1.16H1141.97M788.84 316.49C792.05 316.49 795.11 315.91 798.03 314.74C800.94 313.58 803.5 311.9 805.69 309.71C807.88 307.52 809.48 304.97 810.5 302.05C811.52 299.14 812.03 296.07 812.03 292.86C812.03 289.65 811.52 286.67 810.5 283.89C809.47 281.12 807.88 278.64 805.69 276.45C803.5 274.26 800.95 272.59 798.03 271.42C795.11 270.26 792.05 269.67 788.84 269.67C785.34 269.67 782.2 270.26 779.43 271.42C776.65 272.59 774.25 274.26 772.21 276.45C770.17 278.64 768.56 281.12 767.4 283.89C766.23 286.67 765.65 289.65 765.65 292.86C765.65 296.07 766.23 299.14 767.4 302.05C768.56 304.97 770.17 307.52 772.21 309.71C774.25 311.9 776.65 313.58 779.43 314.74C782.2 315.91 785.34 316.49 788.84 316.49ZM679.02 487.31H679.55C680.47 487.36 681.39 487.38 682.33 487.38C734.74 487.38 805.67 414.98 878.12 316.66C873.38 319.29 868.11 321.4 863.37 323.51C853.04 328.1 842.67 332.51 832.35 336.8C826.87 341.8 820.54 345.76 813.36 348.66C806.73 351.33 799.67 352.84 792.16 353.18C714.59 384.57 649.53 412.08 649.53 458.35C649.53 476.78 662.7 487.32 679.02 487.32M1144.39 0H1139.78L1139.43 0.509998C1124.91 21.61 1109.6 31.86 1092.61 31.86C1085.01 31.86 1078.17 29.93 1072.14 28.23L1071.19 27.96L1070.38 27.73L1069.9 28.42L985.64 149.54C966.8 174.28 943.83 201.11 924.19 221.31C901.13 245.03 884.2 258.09 876.51 258.09C873.87 258.09 871.75 257.26 870.39 255.7C868.85 253.94 868.27 251.22 868.72 247.83V247.8V247.77C870.25 227.87 904.43 189.31 936.35 154.73C970.61 115.65 988.28 82.87 990.38 54.48C991.7 39.04 985.57 30.54 982.87 27.6C979.64 24.08 975.72 22.15 971.83 22.15C951.78 22.15 915.5 59.12 857.64 138.51L857.22 139.09L857.54 139.73L858.07 140.78L858.93 142.5L860.07 140.95C899.5 87.23 947.78 25.56 971.31 25.56C974.18 25.56 976.43 26.46 977.98 28.23C979.96 30.49 980.73 34.12 980.15 38.45V38.48V38.51C978.93 52.35 957.32 73.25 932.29 97.46C925.84 103.7 919.18 110.15 912.54 116.78C891.68 138.05 855.91 178.92 850.59 213.82C848.34 230.51 851.65 245.76 859.42 254.66C863.65 259.49 868.83 262.05 874.4 262.05C896.14 262.05 948.93 202.86 987.69 151.97H988.15C949.56 213.75 912.81 268.31 878.9 314.18L862.85 321.43C855.37 324.76 847.42 328.21 838.65 331.9C842.27 327.52 845.22 322.6 847.44 317.21C850.55 309.66 852.12 301.49 852.12 292.92C852.12 284.35 850.47 276.24 847.21 268.82C843.95 261.43 839.45 254.9 833.83 249.42C828.2 243.94 821.45 239.59 813.76 236.48C806.07 233.37 797.67 231.8 788.82 231.8C781.6 231.8 774.79 232.9 768.55 235.08V41.85H725.51V287.62C725.51 297.08 727.16 305.98 730.41 314.09C733.65 322.21 738.15 329.33 743.78 335.25C749.4 341.17 756.15 345.9 763.85 349.3C770.15 352.08 776.91 353.74 784.01 354.26C745.17 370.08 713.41 383.66 689.32 399.23C660.64 417.76 647.28 436.55 647.28 458.35C647.28 476.22 659.47 489.29 678.33 491.64C681.9 492.09 685.76 492.31 689.81 492.31C710.6 492.31 735.53 486.54 760.02 476.07C787.91 464.14 813.54 446.83 834.15 425.99C868.55 391.59 901.37 348.06 940.56 284.87C978.08 261.85 1005.05 238.54 1025.43 211.53C1045.22 187.66 1062.13 164.54 1077.12 140.85L1077.47 140.29L1077.17 139.7L1076.64 138.65L1075.72 136.81L1074.6 138.54C1056.93 165.9 1040.07 189.13 1023.07 209.53L1023.05 209.55L1023.03 209.57C1003.88 234.65 978.28 257.16 944.89 278.27C960.32 253.04 977.78 223.17 998.13 187.16C1021.3 145.09 1059.05 101.13 1095.56 58.62C1112.74 38.62 1128.96 19.72 1142.87 1.91L1144.35 0.00999832L1144.39 0ZM788.84 315.32C785.51 315.32 782.5 314.76 779.89 313.66C777.29 312.57 774.99 310.97 773.07 308.91C771.13 306.83 769.59 304.38 768.49 301.62C767.38 298.86 766.82 295.92 766.82 292.87C766.82 289.82 767.38 286.97 768.48 284.36C769.58 281.73 771.13 279.34 773.07 277.27C774.98 275.22 777.28 273.62 779.89 272.52C782.51 271.42 785.52 270.86 788.84 270.86C791.87 270.86 794.81 271.42 797.59 272.53C800.35 273.64 802.79 275.24 804.85 277.3C806.9 279.35 808.43 281.71 809.39 284.32C810.36 286.95 810.85 289.84 810.85 292.88C810.85 295.92 810.36 298.9 809.38 301.68C808.42 304.42 806.89 306.85 804.85 308.89C802.78 310.96 800.34 312.56 797.59 313.66C794.83 314.77 791.88 315.33 788.84 315.33V315.32ZM832.98 337.8C844.5 333.01 854.59 328.69 863.84 324.58C864.94 324.09 866.07 323.6 867.21 323.11C869.52 322.11 871.87 321.09 874.19 319.99C792.37 430.28 727.83 486.2 682.33 486.2C681.41 486.2 680.52 486.18 679.61 486.13H679.58H679.55H679.02C662.08 486.13 650.7 474.96 650.7 458.34C650.7 437.5 663.94 419.33 692.38 401.17C717.47 385.14 751.08 371.07 792.4 354.34C799.93 353.98 807.12 352.43 813.78 349.75C820.97 346.84 827.43 342.83 832.97 337.81L832.98 337.8Z" fill="black"/>
<path d="M337.55 364.86C328.13 364.86 319.76 361.44 313.36 354.98C305.42 346.97 300.65 334.52 300.03 320.41L292.98 344.36H260.64L197.64 135.51L135.27 344.36H102.92L26.59 82.82L0.589966 80.34V66.63H123.2V80.34L88.6 83.61L139.06 278.09L195.18 84.26L159.79 80.33V66.63H279.44V80.34L240.27 84.4L295.49 279.25L348.25 84.83L313.81 80.32V66.63H404.21V80.32L369.42 84.87L327.92 225.78C337.73 205.29 349.1 185.43 359.68 170.42C398.09 116.3 440.59 83.14 469.49 64.85C505.12 42.3 540.46 29.37 566.46 29.37C575.79 29.37 579.56 37 580.86 40.8C584.52 40.14 588.27 39.81 592.03 39.81C600.53 39.81 608.55 41.37 615.89 44.45C623.2 47.52 629.89 51.83 635.75 57.25C641.61 62.68 646.22 69 649.45 76.03C652.68 83.08 654.32 90.67 654.32 98.59C654.32 102.99 653.72 107.38 652.55 111.65C651.37 115.91 649.74 119.92 647.68 123.6C645.88 126.82 643.67 129.88 641.12 132.72C651.63 137.39 661.23 143.49 669.65 150.88C681.47 161.24 690.94 173.89 697.8 188.48C704.66 203.09 708.14 219.22 708.14 236.42C708.14 257.73 702.96 277.11 692.74 294.04C682.52 310.96 668.54 324.65 651.18 334.72C633.81 344.79 613.91 349.89 592.03 349.89H529.75V221.97C496.49 256.61 463.32 269.22 449 269.22H447.02C410.8 312.89 362.48 364.84 337.57 364.84L337.55 364.86ZM566.45 32.06C546.96 32.06 489.58 83.17 421.61 177.88C355.55 267.46 326.1 318.91 326.1 344.69C326.1 355.32 330.83 361.42 339.07 361.42C356.58 361.42 394.88 327.73 444.21 268.95C435.99 266.27 431.87 258.44 432.6 246.77C434.18 229.42 448.36 204.12 469.6 180.74C490.74 157.48 513.71 141.95 529.74 140.04V98.59C529.74 90.66 531.38 83.07 534.61 76.03C537.83 69 542.44 62.68 548.31 57.25C554.17 51.83 560.93 47.53 568.39 44.45C571.54 43.15 574.85 42.11 578.25 41.34C577.11 38.13 573.97 32.05 566.45 32.05V32.06ZM592.01 309.78C605.83 309.78 618.39 306.5 629.34 300.02C640.28 293.54 649.05 284.49 655.38 273.11C661.72 261.72 664.93 248.94 664.93 235.11C664.93 221.28 661.72 208.57 655.38 197.33C649.04 186.1 640.28 177.12 629.34 170.64C618.39 164.16 605.83 160.88 592.01 160.88H571.6V309.78H592.01ZM529.73 162.5C522.18 173.01 514.62 183 508.18 191.45C487.69 219.83 465.38 248.64 453.94 261.51L449.59 266.48C468.46 265.18 500.06 249.97 529.73 218.26V162.51V162.5ZM569.06 97.94C569 98.69 568.98 99.31 568.98 99.91C568.98 103.6 569.91 107.26 571.76 110.8C573.59 114.33 576.24 117.12 579.63 119.1C583.02 121.08 587.04 122.08 591.59 122.08C595.84 122.08 599.64 121.08 602.88 119.1C606.13 117.12 608.79 114.46 610.78 111.2C612.76 107.95 613.76 104.16 613.76 99.91C613.76 95.66 612.76 91.79 610.78 88.39C608.8 85.01 606.15 82.35 602.9 80.51C599.65 78.67 595.69 77.74 591.16 77.74C587.2 77.74 583.46 78.67 580.06 80.51C577.95 81.66 576.09 83.12 574.52 84.87C572.94 89.1 571.11 93.49 569.07 97.93L569.06 97.94Z" fill="#FF1486"/>
<path d="M566.45 29.96C574.11 29.96 578.58 35.54 580.46 41.47C584.23 40.76 588.08 40.39 592.02 40.39C600.48 40.39 608.35 41.92 615.65 44.98C622.94 48.04 629.5 52.27 635.34 57.67C641.17 63.07 645.69 69.27 648.9 76.27C652.11 83.27 653.71 90.71 653.71 98.59C653.71 102.97 653.12 107.27 651.96 111.5C650.79 115.73 649.18 119.67 647.15 123.31C645.2 126.79 642.85 129.98 640.12 132.92C650.88 137.61 660.6 143.73 669.25 151.31C681.06 161.67 690.4 174.14 697.25 188.72C704.1 203.31 707.53 219.2 707.53 236.41C707.53 257.71 702.42 276.81 692.22 293.73C682.01 310.65 668.22 324.14 650.87 334.2C633.51 344.26 613.9 349.3 592.02 349.3H530.33V220.5C495.82 256.91 462.29 268.63 449 268.63H446.74C399.31 325.85 358.65 364.25 337.56 364.25C313.09 364.25 300.33 341.55 300.56 316.54L292.55 343.75H261.08L197.64 133.45L134.84 343.75H103.37L27.05 82.25L1.19 79.79V67.2H122.62V79.79L87.87 83.08L139.04 280.3L195.95 83.74L160.39 79.79V67.2H278.86V79.79L239.53 83.87L295.52 281.43L349.01 84.32L314.41 79.79V67.2H403.63V79.79L368.97 84.33L325.17 233.04C336.22 208.89 349.19 186.33 360.16 170.75C426.42 77.39 517.52 29.95 566.46 29.95M339.06 362.01C357.88 362.01 398.54 324.36 445.22 268.65C436.94 266.39 432.42 258.86 433.17 246.81C436.53 209.84 495.7 144.07 530.32 140.57V98.6C530.32 90.72 531.92 83.29 535.13 76.28C538.34 69.28 542.86 63.09 548.69 57.68C554.52 52.29 561.16 48.05 568.6 44.99C571.99 43.59 575.46 42.53 579 41.77C577.33 36.45 573.42 31.46 566.44 31.46C547.62 31.46 491.9 78.89 421.12 177.53C366.16 252.07 325.5 314.56 325.5 344.68C325.5 355.97 330.77 362 339.05 362M591.58 122.66C595.96 122.66 599.82 121.64 603.18 119.6C606.53 117.56 609.23 114.86 611.27 111.5C613.31 108.15 614.33 104.28 614.33 99.91C614.33 95.54 613.3 91.6 611.27 88.1C609.23 84.6 606.53 81.91 603.18 80C599.82 78.11 595.81 77.16 591.15 77.16C587.06 77.16 583.27 78.11 579.77 80C577.55 81.2 575.63 82.73 574 84.57C572.38 88.94 570.53 93.35 568.49 97.79C568.43 98.49 568.4 99.19 568.4 99.91C568.4 103.7 569.34 107.42 571.24 111.07C573.13 114.72 575.83 117.57 579.33 119.6C582.83 121.64 586.91 122.66 591.58 122.66ZM571.01 310.37H592.01C606.01 310.37 618.55 307.09 629.64 300.52C640.72 293.96 649.47 284.92 655.89 273.39C662.3 261.87 665.52 249.11 665.52 235.1C665.52 221.09 662.31 208.41 655.89 197.03C649.47 185.65 640.72 176.68 629.64 170.12C618.55 163.56 606.01 160.27 592.01 160.27H571.01V310.35M448.24 267.14C466.94 266.52 499.57 251.43 530.33 218.49V160.68C522.83 171.17 515.13 181.39 507.73 191.1C488.15 218.21 465.57 247.57 453.52 261.12L448.25 267.14M566.45 28.79C540.34 28.79 504.88 41.75 469.16 64.36C440.22 82.68 397.65 115.89 359.18 170.08C349.67 183.58 339.52 200.98 330.44 219.24L369.86 85.4L403.76 80.96L404.78 80.83V66.04H313.21V80.83L314.23 80.96L347.49 85.31L295.47 277.03L241.02 84.89L278.96 80.96L280.01 80.85V66.03H159.19V80.84L160.24 80.96L194.42 84.76L139.08 275.86L89.34 84.12L122.72 80.96L123.78 80.86V66.03H0V80.86L1.06 80.96L26.13 83.35L102.22 344.09L102.47 344.94H135.7L135.95 344.1L197.63 137.55L259.94 344.1L260.19 344.94H293.41L293.66 344.1L299.66 323.73C300.84 336.62 305.52 347.91 312.94 355.39C319.46 361.97 327.97 365.44 337.55 365.44C362.65 365.44 410.99 313.55 447.28 269.82H448.99C463.26 269.82 496.1 257.41 529.15 223.43V350.48H592.02C614 350.48 634 345.35 651.46 335.23C668.91 325.11 682.96 311.36 693.22 294.35C703.49 277.33 708.7 257.84 708.7 236.42C708.7 219.13 705.2 202.91 698.31 188.23C691.41 173.56 681.9 160.85 670.02 150.43C661.75 143.18 652.35 137.16 642.07 132.51C644.43 129.81 646.48 126.92 648.17 123.89C650.25 120.18 651.9 116.11 653.09 111.81C654.28 107.49 654.88 103.04 654.88 98.59C654.88 90.58 653.22 82.91 649.96 75.79C646.7 68.68 642.04 62.3 636.13 56.82C630.21 51.35 623.47 47.01 616.1 43.91C608.69 40.8 600.59 39.22 592.02 39.22C588.4 39.22 584.78 39.53 581.24 40.14C578.64 33.01 573.18 28.79 566.45 28.79ZM339.06 360.83C331.19 360.83 326.68 354.95 326.68 344.69C326.68 311.82 377.66 238.47 422.07 178.24C462.93 121.3 494.66 87.06 514.08 68.37C537.66 45.67 556.75 32.65 566.44 32.65C573.01 32.65 576.08 37.39 577.46 40.92C574.26 41.68 571.14 42.68 568.16 43.91C560.63 47.01 553.81 51.36 547.9 56.82C541.97 62.3 537.32 68.68 534.06 75.79C530.8 82.9 529.14 90.57 529.14 98.59V139.52C520.95 140.63 511.03 145.09 500.34 152.48C490.03 159.61 479.24 169.24 469.16 180.35C447.83 203.82 433.6 229.25 432.01 246.7C431.28 258.31 435.25 266.22 443.21 269.22C394.26 327.46 356.34 360.83 339.07 360.83H339.06ZM575.02 85.19C576.52 83.53 578.31 82.13 580.33 81.03C583.64 79.24 587.28 78.33 591.15 78.33C595.58 78.33 599.44 79.24 602.61 81.02C605.77 82.81 608.34 85.39 610.27 88.68C612.2 91.99 613.17 95.76 613.17 99.9C613.17 104.04 612.2 107.73 610.28 110.88C608.34 114.06 605.75 116.65 602.58 118.58C599.43 120.5 595.73 121.47 591.6 121.47C587.16 121.47 583.24 120.49 579.94 118.57C576.65 116.65 574.08 113.94 572.3 110.51C570.5 107.06 569.59 103.49 569.59 99.89C569.59 99.33 569.61 98.75 569.66 98.07C571.67 93.69 573.48 89.35 575.04 85.17L575.02 85.19ZM572.19 161.46H592.02C605.74 161.46 618.2 164.72 629.05 171.14C639.9 177.57 648.59 186.47 654.88 197.62C661.17 208.77 664.35 221.39 664.35 235.11C664.35 248.83 661.16 261.53 654.87 272.82C648.59 284.1 639.9 293.08 629.04 299.51C618.19 305.93 605.73 309.19 592.01 309.19H572.18V161.46H572.19ZM450.99 265.77L454.39 261.89C465.83 249.01 488.16 220.18 508.67 191.78C514.8 183.74 521.95 174.29 529.15 164.32V218.02C500.37 248.71 469.85 263.84 451 265.77H450.99Z" fill="black"/>
</svg>
