<svg width="340" height="303" viewBox="0 0 340 303" fill="none" xmlns="http://www.w3.org/2000/svg">
<path d="M169.94 243.36C263.795 243.36 339.88 188.882 339.88 121.68C339.88 54.478 263.795 0 169.94 0C76.0847 0 0 54.478 0 121.68C0 188.882 76.0847 243.36 169.94 243.36Z" fill="url(#paint0_radial_357_586)"/>
<path d="M108.18 278.37C132.315 278.37 151.88 264.361 151.88 247.08C151.88 229.799 132.315 215.79 108.18 215.79C84.0451 215.79 64.48 229.799 64.48 247.08C64.48 264.361 84.0451 278.37 108.18 278.37Z" fill="url(#paint1_radial_357_586)"/>
<path d="M87.6899 302.89C103.949 302.89 117.13 293.452 117.13 281.81C117.13 270.168 103.949 260.73 87.6899 260.73C71.4307 260.73 58.25 270.168 58.25 281.81C58.25 293.452 71.4307 302.89 87.6899 302.89Z" fill="url(#paint2_radial_357_586)"/>
<defs>
<radialGradient id="paint0_radial_357_586" cx="0" cy="0" r="1" gradientUnits="userSpaceOnUse" gradientTransform="translate(170.62 117.969) scale(166.75 121.727)">
<stop offset="0.57" stop-color="#91D271"/>
<stop offset="0.77" stop-color="#90D071"/>
<stop offset="0.85" stop-color="#8DC972"/>
<stop offset="0.9" stop-color="#89BD74"/>
<stop offset="0.95" stop-color="#82AC76"/>
<stop offset="0.98" stop-color="#7A967A"/>
<stop offset="1" stop-color="#768B7C"/>
</radialGradient>
<radialGradient id="paint1_radial_357_586" cx="0" cy="0" r="1" gradientUnits="userSpaceOnUse" gradientTransform="translate(108.35 249.255) scale(42.88 31.3024)">
<stop offset="0.57" stop-color="#91D271"/>
<stop offset="0.77" stop-color="#90D071"/>
<stop offset="0.85" stop-color="#8DC972"/>
<stop offset="0.9" stop-color="#89BD74"/>
<stop offset="0.95" stop-color="#82AC76"/>
<stop offset="0.98" stop-color="#7A967A"/>
<stop offset="1" stop-color="#768B7C"/>
</radialGradient>
<radialGradient id="paint2_radial_357_586" cx="0" cy="0" r="1" gradientUnits="userSpaceOnUse" gradientTransform="translate(87.81 284.736) scale(28.89 21.0897)">
<stop offset="0.57" stop-color="#91D271"/>
<stop offset="0.77" stop-color="#90D071"/>
<stop offset="0.85" stop-color="#8DC972"/>
<stop offset="0.9" stop-color="#89BD74"/>
<stop offset="0.95" stop-color="#82AC76"/>
<stop offset="0.98" stop-color="#7A967A"/>
<stop offset="1" stop-color="#768B7C"/>
</radialGradient>
</defs>
</svg>
